<svg xmlns="http://www.w3.org/2000/svg" width="1920" height="1080" viewBox="0 0 1920 1080">
  <metadata><?xpacket begin="﻿" id="W5M0MpCehiHzreSzNTczkc9d"?>
<x:xmpmeta xmlns:x="adobe:ns:meta/" x:xmptk="Adobe XMP Core 5.6-c138 79.159824, 2016/09/14-01:09:01        ">
   <rdf:RDF xmlns:rdf="http://www.w3.org/1999/02/22-rdf-syntax-ns#">
      <rdf:Description rdf:about=""/>
   </rdf:RDF>
</x:xmpmeta>
                                                                                                    
                                                                                                    
                                                                                                    
                                                                                                    
                                                                                                    
                                                                                                    
                                                                                                    
                                                                                                    
                                                                                                    
                                                                                                    
                                                                                                    
                                                                                                    
                                                                                                    
                                                                                                    
                                                                                                    
                                                                                                    
                                                                                                    
                                                                                                    
                                                                                                    
                                                                                                    
                           
<?xpacket end="w"?></metadata>
<defs>
    <style>
      .cls-1 {
        fill: #ffef92;
      }

      .cls-2 {
        fill: #ffe75c;
        fill-rule: evenodd;
      }
    </style>
  </defs>
  <rect class="cls-1" y="-3" width="1920" height="1083"/>
  <path class="cls-2" d="M-134.238,559L545.09-120.328,648.328-17.09-31,662.238Zm-176-122L369.09-242.328,472.328-139.09-207,540.238ZM-153,861L894-186,997-83-50,964Zm67,236L1165-154,1268-51,114,1103Zm279,34L1444-120,1547-17,393,1137Zm302,17L1643-3l206,1L695,1154Zm350-45L1920,28V234l-875,875Zm327-23,748-748V538l-542,542H1172Zm311,0,437-437V849l-231,231H1483Zm319,0,118-118v118H1802Z"/>
</svg>
