<svg xmlns="http://www.w3.org/2000/svg" width="1080" height="200" viewBox="0 0 1080 200">
  <metadata><?xpacket begin="﻿" id="W5M0MpCehiHzreSzNTczkc9d"?>
<x:xmpmeta xmlns:x="adobe:ns:meta/" x:xmptk="Adobe XMP Core 5.6-c138 79.159824, 2016/09/14-01:09:01        ">
   <rdf:RDF xmlns:rdf="http://www.w3.org/1999/02/22-rdf-syntax-ns#">
      <rdf:Description rdf:about=""/>
   </rdf:RDF>
</x:xmpmeta>
                                                                                                    
                                                                                                    
                                                                                                    
                                                                                                    
                                                                                                    
                                                                                                    
                                                                                                    
                                                                                                    
                                                                                                    
                                                                                                    
                                                                                                    
                                                                                                    
                                                                                                    
                                                                                                    
                                                                                                    
                                                                                                    
                                                                                                    
                                                                                                    
                                                                                                    
                                                                                                    
                           
<?xpacket end="w"?></metadata>
<defs>
    <style>
      .cls-1 {
        fill: #8f0974;
      }

      .cls-2 {
        fill: #8f11a8;
        fill-rule: evenodd;
      }
    </style>
  </defs>
  <rect class="cls-1" x="-18" y="-108" width="1152" height="334"/>
  <path class="cls-2" d="M-62.043,170.183L130.767-64.8l29.3,35.711L-32.742,205.894ZM-112,127.982L80.814-107l29.3,35.711L-82.7,163.693Zm44.627,146.666L229.8-87.521,259.03-51.892-38.135,310.277Zm19.016,81.635L306.712-76.452l29.234,35.629L8.413,358.359Zm79.187,11.761L385.9-64.691l29.234,35.629L87.6,370.12Zm85.715,5.881L442.381-24.219l58.467,0.346L173.315,376Zm99.338-15.566L521-13.5V57.762L272.653,360.434ZM308.7,350.4L521,91.661v71.258L367.167,350.4H308.7Zm88.27,0L521,199.239V270.5L455.436,350.4H396.969Zm90.54,0L521,309.585V350.4H487.509Z"/>
  <path id="Rectangle_1_copy" data-name="Rectangle 1 copy" class="cls-2" d="M456.957,169.183L649.767-65.8l29.3,35.711L486.258,204.894ZM407,126.982L599.814-108l29.3,35.711L436.305,162.693Zm44.627,146.666L748.8-88.521,778.03-52.892,480.865,309.277Zm19.017,81.635L825.712-77.452l29.234,35.629L527.413,357.359Zm79.187,11.761L904.9-65.691l29.234,35.629L606.6,369.12Zm85.715,5.881L961.381-25.219l58.469,0.346L692.315,375Zm99.338-15.566L1040-14.5V56.762L791.653,359.434ZM827.7,349.4L1040,90.661v71.258L886.167,349.4H827.7Zm88.27,0L1040,198.239V269.5L974.436,349.4H915.969Zm90.541,0L1040,308.585V349.4h-33.49Z"/>
  <path id="Rectangle_1_copy_2" data-name="Rectangle 1 copy 2" class="cls-2" d="M973.957,169.183L1166.77-65.8l29.3,35.711L1003.26,204.894ZM924,126.982L1116.81-108l29.3,35.711-192.8,234.987Zm44.627,146.666L1265.8-88.521l29.23,35.629L997.865,309.277Zm19.017,81.635L1342.71-77.452l29.24,35.629L1044.41,357.359Zm79.182,11.761L1421.9-65.691l29.23,35.629L1123.6,369.12Zm85.72,5.881L1478.38-25.219l58.47,0.346L1209.31,375Zm99.34-15.566L1557-14.5V56.762L1308.65,359.434Zm92.81-7.956L1557,90.661v71.258L1403.17,349.4H1344.7Zm88.27,0L1557,198.239V269.5L1491.44,349.4h-58.47Zm90.54,0L1557,308.585V349.4h-33.49Z"/>
</svg>
